<svg width="20" height="20" viewBox="0 0 20 20" fill="none" xmlns="http://www.w3.org/2000/svg">
<path fill-rule="evenodd" clip-rule="evenodd" d="M6.93013 0H13.0699C18.6733 0 20 1.32675 20 6.93013V13.0699C20 18.6733 18.6733 20 13.0699 20H6.93013C1.32675 20 0 18.6733 0 13.0699V6.93013C0 1.32675 1.32675 0 6.93013 0Z" fill="#4285F4"/>
<path fill-rule="evenodd" clip-rule="evenodd" d="M15.6941 6.62455C15.7905 6.27224 15.6941 6.01601 15.2673 6.01601H13.8492C13.4912 6.01601 13.326 6.24021 13.2296 6.48043C13.2296 6.48043 12.4999 8.53025 11.4811 9.85943C11.1507 10.2438 10.9992 10.3719 10.8202 10.3719C10.7238 10.3719 10.5999 10.2438 10.5999 9.89146V6.60854C10.5999 6.19217 10.4898 6 10.1869 6H7.95648C7.73619 6 7.59851 6.19217 7.59851 6.38434C7.59851 6.7847 8.10792 6.88078 8.163 8.00178V10.4359C8.163 10.9644 8.08039 11.0605 7.9014 11.0605C7.41953 11.0605 6.24925 8.99466 5.54708 6.64057C5.4094 6.17616 5.27172 6 4.91375 6H3.48188C3.06884 6 3 6.2242 3 6.46441C3 6.8968 3.48188 9.07473 5.24418 11.9573C6.41446 13.927 8.08039 14.984 9.5811 14.984C10.4898 14.984 10.5999 14.7438 10.5999 14.3434V12.8541C10.5999 12.3737 10.6825 12.2936 10.9717 12.2936C11.1782 12.2936 11.5499 12.4217 12.3898 13.3665C13.3535 14.4875 13.5187 15 14.0557 15H15.4738C15.8868 15 16.0796 14.7598 15.9694 14.2954C15.8455 13.831 15.3774 13.1584 14.7716 12.3577C14.4412 11.9093 13.9456 11.4128 13.7941 11.1726C13.5876 10.8523 13.6427 10.7242 13.7941 10.4359C13.7803 10.4359 15.5151 7.58541 15.6941 6.62455Z" fill="white"/>
</svg>
